PathFileType	4	(X/Y/Z)	C:/Users/beibeiliu/ov580/test_trc/capture2\sequence.25_training_dense_left.trc
DataRate	CameraRate	NumFrames	NumMarkers	Units	OrigDataRate	OrigDataStartFrame	OrigNumFrames
120	120	20	19	mm	120	1	343
Frame#	Time	ThumbCMC			ThumbMCP			ThumbIP			ThumbTip			IndexMCP			IndexPIP			IndexTip			MiddleMCP			MiddlePIP			MiddleTip			RingMCP			RingPIP			RingTip			PinkyMCP			PinkyPIP			PinkyTip			BackHand1			BackHand2			BackHand3	
		X0	Y0	Z0	X1	Y1	Z1	X2	Y2	Z2	X3	Y3	Z3	X4	Y4	Z4	X5	Y5	Z5	X6	Y6	Z6	X7	Y7	Z7	X8	Y8	Z8	X9	Y9	Z9	X10	Y10	Z10	X11	Y11	Z11	X12	Y12	Z12	X13	Y13	Z13	X14	Y14	Z14	X15	Y15	Z15	X16	Y16	Z16	X17	Y17	Z17	X18	Y18	Z18	
0	0	-106.754	27.1846	21.545	-89.162	15.5923	6.12964	-67.5658	13.2643	-11.5002	-51.0283	9.69451	-29.5441	-110.755	31.7423	-54.9668	-102.51	26.5745	-78.1571	-97.7941	22.879	-108.143	-131.878	33.2876	-65.9107	-131.43	28.4316	-92.1708	-131.789	21.4233	-120.531	-152.401	30.3392	-65.9464	-154.942	26.1543	-86.8864	-156.672	18.5277	-113.18	-179.553	25.5712	-54.1148	-184.187	21.4103	-70.913	-188.881	24.7673	-95.5715	-158.428	46.2885	-17.9265	-163.658	51.749	16.0939	-130.481	48.6983	1.77242	
1	0.00833333	-108.295	26.0219	19.0509	-88.5096	15.7873	5.04749	-72.5589	11.701	-13.3492	-51.9344	8.21508	-29.1272	-111.055	31.5429	-56.632	-103.481	26.5023	-82.7285	-99.8398	21.5444	-109.36	-131.03	32.9682	-68.4211	-130.717	28.5188	-89.9007	-131.964	20.3276	-120.88	-157.123	31.1719	-64.4755	-154.149	25.3065	-87.5179	-155.753	16.6257	-118.474	-177.047	24.8814	-50.3623	-185.752	21.3641	-76.0609	-192.178	25.2907	-94.1308	-161.483	45.3252	-14.68	-162.527	52.1234	13.13	-129.754	47.3109	0.116682	
2	0.0166667	-108.762	25.3743	21.1186	-90.9646	14.8649	7.37269	-68.1164	10.8557	-14.6365	-55.5421	7.25838	-26.2289	-105.034	30.2461	-58.8822	-103.615	25.8272	-80.3165	-96.2047	21.7538	-104.416	-133.222	33.6805	-65.3479	-130.499	27.6283	-91.0279	-128.553	20.0532	-118.798	-151.609	31.2394	-61.9666	-153.524	24.2038	-91.9741	-155.876	15.8419	-117.514	-178.085	26.2768	-51.8485	-185.221	21.2432	-73.9756	-190.216	22.9343	-95.1106	-161.571	46.1916	-15.503	-161.763	50.6145	13.0315	-131.448	47.5029	2.75452	
3	0.025	-104.599	25.4333	16.8936	-90.5634	14.2432	4.04579	-70.0053	10.5406	-13.2311	-54.7395	6.91307	-24.542	-107.529	29.9147	-59.0019	-98.4767	25.0916	-83.0284	-101.406	21.005	-104.58	-130.667	33.0065	-63.9984	-130.275	26.7537	-93.4045	-130.902	18.9391	-119.973	-150.521	30.6445	-64.9498	-153.84	23.8869	-91.0671	-153.181	16.5834	-112.916	-173.114	25.058	-50.8858	-180.19	22.4333	-74.2675	-189.817	25.5384	-95.0531	-159.146	44.378	-18.3277	-165.051	50.873	10.9678	-129.185	47.2593	-0.263581	
4	0.0333333	-109.494	23.8779	19.7405	-88.6708	13.3329	2.77559	-67.6507	9.91632	-10.7685	-51.3167	6.33082	-24.945	-105.189	29.4491	-55.3685	-100.823	24.9855	-78.5289	-96.6907	20.9369	-103.509	-127.65	32.5258	-69.5665	-127.247	24.5827	-95.362	-128.341	18.5669	-118.496	-155.091	29.0694	-64.6334	-152.093	22.873	-92.6357	-154.439	12.9062	-117.37	-178.402	24.2446	-53.3998	-178.587	20.9009	-73.2696	-189.446	24.9202	-95.5958	-159.627	45.147	-18.1283	-158.994	49.9911	10.215	-129.844	45.2452	-0.409966	
5	0.0416667	-108.606	23.7137	15.566	-90.3155	13.5078	3.11064	-69.3393	9.88612	-15.4178	-51.0823	6.0741	-26.1963	-105.245	28.8662	-54.3222	-103.665	23.7271	-83.2225	-98.1883	20.4424	-103.923	-132.47	31.1208	-69.1134	-128.869	25.0418	-93.135	-132.153	16.5543	-120.053	-156.02	28.59	-65.0671	-155.661	21.7428	-92.7864	-156.588	13.0264	-114.852	-176.423	24.8434	-53.3301	-179.231	20.6108	-71.5912	-190.173	22.2391	-95.3364	-157.271	44.682	-14.4881	-162.159	49.3367	11.6485	-127.238	44.9269	1.11633	
6	0.05	-106.852	24.1479	16.6595	-88.1903	13.4475	3.35833	-72.5379	7.93861	-11.5888	-54.9998	5.51005	-26.4357	-109.215	28.206	-59.8003	-101.749	23.1054	-78.2825	-101.284	19.9327	-104.32	-134.115	30.173	-69.4847	-129.669	24.1847	-90.4951	-130.605	15.714	-121.498	-152.297	27.6619	-62.2082	-155.478	21.0294	-89.3453	-153.28	11.5903	-117.918	-179.499	23.7264	-52.9809	-183.197	19.8805	-76.4881	-190.749	22.458	-96.5864	-157.302	42.0151	-13.5439	-164.626	49.3176	13.3084	-131.298	46.6555	1.893	
7	0.0583333	-108.466	24.2225	21.6149	-90.3137	12.519	6.43481	-68.6293	9.23167	-13.8971	-52.8311	5.52883	-24.8001	-108.812	28.0536	-58.0076	-100.91	21.4487	-82.5385	-102.588	19.1845	-104.377	-132.887	29.0281	-68.6276	-131.256	22.5336	-91.0922	-127.638	12.2426	-122.997	-152.597	27.0631	-63.0891	-158.41	19.8659	-89.5812	-156.827	10.8994	-113.985	-179.733	23.8726	-54.9372	-182.204	19.2714	-72.449	-190.761	21.4406	-98.9748	-163.215	42.1212	-13.985	-164.773	48.3225	11.8182	-128.73	46.473	1.58473	
8	0.0666667	-108.928	22.8624	18.7704	-91.1665	11.865	3.24566	-73.9628	8.02545	-13.9801	-54.2126	5.20802	-29.6845	-109.485	27.7902	-55.5793	-102.335	21.508	-83.4496	-96.9961	16.346	-107.747	-132.996	29.4375	-65.1671	-133.925	21.4549	-94.7653	-130.831	11.9027	-120.501	-154.913	26.8984	-64.8244	-158.118	19.9562	-89.0229	-153.579	9.47537	-115.949	-180.235	23.0211	-50.165	-182.441	19.0559	-71.0397	-191.767	22.1537	-96.0986	-160.873	40.9477	-15.172	-166.311	47.7868	14.823	-131.445	44.1138	2.5984	
9	0.075	-112.016	23.3838	19.9136	-88.296	12.8942	4.90526	-70.6914	9.75196	-10.9025	-58.3643	4.58173	-27.3001	-109.011	27.1277	-56.6942	-106.298	22.1706	-79.4546	-101.937	17.0266	-105.979	-131.975	28.7551	-67.4845	-130.316	21.4003	-92.2531	-130.423	10.7945	-118.743	-152.227	26.5967	-65.6446	-159.563	20.2958	-87.6721	-155.782	8.85992	-114.2	-176.285	21.9833	-49.5968	-184.499	18.3902	-73.5396	-190.402	21.0085	-95.2013	-164.558	41.4506	-15.0708	-166.293	47.8608	10.6399	-131.479	44.7525	3.25349	
10	0.0833333	-109.932	24.219	17.9793	-91.0317	13.3892	4.57673	-72.2036	9.33176	-13.7194	-54.9003	6.44198	-28.1235	-112.077	26.3216	-58.4454	-104.337	20.7041	-80.3207	-103.319	14.3165	-108.449	-133.915	27.8254	-69.3788	-132.098	19.9516	-91.3297	-134.906	9.20902	-118.914	-159.539	25.1716	-64.1556	-159.572	19.0673	-87.9977	-155.564	8.1357	-115.782	-177.085	21.0423	-49.964	-184.355	18.5707	-72.8665	-191.092	20.6287	-94.3397	-165.134	40.7881	-14.7545	-166.281	45.9133	9.89817	-134.03	45.3098	1.44462	
11	0.0916667	-114.068	22.9741	19.9335	-89.3195	13.842	6.7522	-71.1858	10.45	-11.845	-58.7946	6.35316	-27.8538	-110.76	26.1875	-58.847	-104.313	19.5508	-82.8988	-104.307	14.1818	-105.025	-134.709	27.6402	-66.6593	-134.772	19.3317	-93.8844	-133.563	7.06325	-122.374	-158.576	24.9152	-62.3459	-156.718	18.1341	-87.2634	-158.386	8.21499	-112.858	-176.612	21.6835	-55.3276	-182.566	17.6352	-71.0953	-194.13	21.4432	-95.6314	-164.919	41.9685	-17.1105	-169.207	47.3766	11.1306	-131.424	42.9809	0.281261	
12	0.1	-113.61	23.8691	15.8819	-94.4137	12.1559	3.92056	-71.0266	9.50257	-11.784	-55.6879	7.40527	-25.8122	-109.638	25.8133	-59.5509	-102.449	19.2355	-81.3417	-102.92	13.4495	-103.467	-132.476	26.6659	-68.253	-133.766	17.5135	-94.7421	-134.44	7.43447	-118.559	-159.722	25.0851	-64.0755	-155.032	16.9539	-90.2464	-156.805	6.09932	-114.053	-180.116	20.6938	-50.681	-184.287	17.3081	-70.327	-192.125	22.0727	-96.7393	-160.561	39.2565	-17.4831	-166.919	46.4819	13.9454	-133.97	42.9841	2.58869	
13	0.108333	-112.467	22.7227	20.6786	-89.8433	13.4779	4.49866	-70.9089	10.8617	-13.9425	-55.4843	7.26349	-27.6446	-114.048	26.8069	-56.5465	-105.728	20.9212	-79.0986	-102.789	12.0364	-107.084	-133.705	27.4163	-69.8027	-131.474	17.5264	-93.7165	-131.216	6.32649	-117.301	-156.411	25.0251	-65.7278	-157.094	17.4286	-86.7391	-155.37	5.89678	-112.122	-176.874	22.1939	-55.0582	-185.273	17.5914	-75.8339	-190.256	21.3889	-96.8252	-161.556	39.1726	-17.02	-166.463	47.498	11.7784	-134.058	45.7354	4.77846	
14	0.116667	-111.016	24.3213	20.5415	-91.9585	14.2698	7.56205	-71.6285	11.4874	-11.2195	-58.2777	8.71453	-27.5605	-113.584	27.5756	-59.1374	-107.067	20.7823	-80.7991	-103.266	11.2603	-105.944	-132.744	27.6896	-65.959	-130.308	17.5659	-91.7821	-131.468	1.82778	-121.24	-155.97	25.2189	-64.5423	-156.599	16.77	-89.0871	-153.65	4.62899	-111.046	-181.241	21.7342	-54.6225	-185.259	18.231	-71.0536	-192.94	22.1509	-98.336	-166.323	40.8648	-14.4413	-166.464	44.2687	12.2153	-135.576	44.8153	2.54642	
15	0.125	-111.69	24.3729	20.3541	-92.4926	15.0227	4.25037	-70.8818	14.109	-15.5012	-57.5766	10.0213	-25.718	-111.367	29.2506	-56.8488	-102.78	21.5953	-80.2842	-103.916	10.6835	-108.57	-135.73	29.2933	-65.4517	-128.681	17.0149	-94.2271	-129.15	2.49984	-117.238	-157.208	26.254	-63.177	-154.694	16.7935	-87.2428	-154.051	2.67303	-111.812	-181.371	21.99	-53.6082	-182.447	18.3061	-72.9022	-188.674	22.3476	-97.324	-163.694	40.1122	-16.5473	-167.634	45.2718	13.146	-133.522	47.0417	0.772799	
16	0.133333	-111.886	25.9191	22.1667	-90.4283	17.1198	2.3139	-73.6324	15.4833	-13.615	-56.5426	14.5231	-30.6648	-112.474	31.2582	-54.9053	-105.698	20.5148	-82.7352	-103.021	10.1051	-104.995	-136.847	29.5168	-64.11	-132.369	17.4195	-92.4621	-129.307	0.0878561	-115.312	-153.325	25.8354	-64.3436	-155.647	15.7098	-90.063	-151.693	-0.660703	-114.869	-179.122	22.0065	-55.0307	-182.206	18.7471	-72.6481	-188.086	21.4896	-95.6065	-165.514	41.7487	-12.192	-167.28	46.6906	11.8194	-136.106	47.7404	0.725396	
17	0.141667	-111.062	27.8111	20.9521	-94.3013	17.8644	6.22144	-74.8597	17.6133	-12.337	-57.5704	17.3978	-29.0364	-109.492	34.5727	-53.2819	-104.773	22.3295	-81.8117	-101.308	8.7722	-102.175	-133.975	31.0263	-68.0612	-128.151	18.369	-90.2533	-126.135	-5.20253	-115.545	-155.947	27.2435	-65.4435	-154.699	16.8621	-87.8204	-144.348	-1.47857	-110.392	-176.806	23.5393	-52.5348	-182.797	19.9243	-75.6482	-187.312	22.2685	-94.2405	-164.253	43.0743	-14.4569	-171.195	45.5369	11.7152	-139.493	48.7435	3.33546	
18	0.15	-111.829	30.6881	20.4801	-96.6562	21.0967	5.87564	-74.1334	21.9927	-16.6726	-64.0333	21.1407	-33.1522	-111.717	37.7629	-52.1403	-102.562	26.5089	-78.5985	-101.642	6.87873	-99.5609	-133.386	34.8826	-64.1692	-128.41	16.6581	-92.0799	-123.515	-3.82264	-107.85	-155.478	29.4154	-62.9537	-153.026	15.4369	-89.6006	-141.674	-5.19102	-110.141	-177.678	23.8436	-52.5722	-179.363	21.5681	-76.623	-184.069	23.8367	-95.7266	-165.527	43.1802	-11.683	-174.338	46.12	15.433	-142.524	48.3151	5.72561	
19	0.158333	-115.962	32.4428	21.6696	-94.0183	26.2387	5.62711	-78.3272	27.4697	-15.688	-64.7156	27.8544	-34.1894	-113.71	42.5926	-56.0497	-103.817	30.641	-75.1624	-98.9577	4.77762	-92.3525	-133.077	37.1154	-66.1626	-121.498	19.9996	-86.3783	-116.437	-7.8845	-99.2577	-155.834	29.8313	-66.3394	-148.346	16.9788	-85.6946	-134.122	-7.9878	-102.774	-178.922	24.3789	-50.8641	-181.055	21.6053	-73.2034	-185.39	21.8321	-97.318	-168.544	45.7983	-13.5486	-174.911	42.5462	18.4775	-140.487	52.9139	9.37182	
